<svg xmlns="http://www.w3.org/2000/svg" width="20" height="20" viewBox="0 0 20 20"><g><g opacity=".7"><path fill="#bdc3c7" d="M19.946 7.765l.024.006-2.5 11.25-.024-.006c-.125.559-.6.984-1.196.984H3.75c-.596 0-1.071-.425-1.196-.984l-.024.006L.03 7.77l.024-.006C.034 7.677 0 7.594 0 7.5c0-.691.56-1.25 1.25-1.25h2.5a6.25 6.25 0 1 1 12.5 0h2.5c.69 0 1.25.559 1.25 1.25 0 .094-.034.177-.054.265zM10 2.5a3.75 3.75 0 0 0-3.75 3.75h7.5A3.75 3.75 0 0 0 10 2.5zm5 8.75c-.69 0-1.25-.56-1.25-1.25V8.75h-7.5V10a1.25 1.25 0 1 1-2.5 0V8.75h-.942l1.945 8.75h10.494l1.945-8.75h-.942V10c0 .69-.56 1.25-1.25 1.25z"/><path fill="#b7bacd" d="M19.946 7.765l.024.006-2.5 11.25-.024-.006c-.125.559-.6.984-1.196.984H3.75c-.596 0-1.071-.425-1.196-.984l-.024.006L.03 7.77l.024-.006C.034 7.677 0 7.594 0 7.5c0-.691.56-1.25 1.25-1.25h2.5a6.25 6.25 0 1 1 12.5 0h2.5c.69 0 1.25.559 1.25 1.25 0 .094-.034.177-.054.265zM10 2.5a3.75 3.75 0 0 0-3.75 3.75h7.5A3.75 3.75 0 0 0 10 2.5zm5 8.75c-.69 0-1.25-.56-1.25-1.25V8.75h-7.5V10a1.25 1.25 0 1 1-2.5 0V8.75h-.942l1.945 8.75h10.494l1.945-8.75h-.942V10c0 .69-.56 1.25-1.25 1.25z"/></g></g></svg>