<svg xmlns="http://www.w3.org/2000/svg" width="19" height="21" viewBox="0 0 19 21"><g><g opacity=".7"><path fill="#bdc3c7" d="M18.993 11.308c0 2.678-2.125 4.849-4.747 4.849-1.554 0-2.914-.775-3.774-1.957l-.023.017-.95-1.293-.949 1.293-.013-.01c-.866 1.177-2.231 1.95-3.784 1.95-2.621 0-4.746-2.171-4.746-4.85 0-1.091.366-2.089.962-2.9l-.013-.01S7.918-.007 9.5-.007c1.582 0 8.543 8.406 8.543 8.406l-.013.01c.596.81.963 1.808.963 2.9zM7.918 17.773v-1.616c0-.892.708-1.617 1.582-1.617.874 0 1.582.725 1.582 1.617v1.616c.874 0 1.582.724 1.582 1.617 0 .892-.708 1.617-1.582 1.617H7.918c-.874 0-1.582-.725-1.582-1.617 0-.893.708-1.617 1.582-1.617z"/><path fill="#b7bacd" d="M18.993 11.308c0 2.678-2.125 4.849-4.747 4.849-1.554 0-2.914-.775-3.774-1.957l-.023.017-.95-1.293-.949 1.293-.013-.01c-.866 1.177-2.231 1.95-3.784 1.95-2.621 0-4.746-2.171-4.746-4.85 0-1.091.366-2.089.962-2.9l-.013-.01S7.918-.007 9.5-.007c1.582 0 8.543 8.406 8.543 8.406l-.013.01c.596.81.963 1.808.963 2.9zM7.918 17.773v-1.616c0-.892.708-1.617 1.582-1.617.874 0 1.582.725 1.582 1.617v1.616c.874 0 1.582.724 1.582 1.617 0 .892-.708 1.617-1.582 1.617H7.918c-.874 0-1.582-.725-1.582-1.617 0-.893.708-1.617 1.582-1.617z"/></g></g></svg>